<svg width="23" height="9" viewBox="0 0 23 9" fill="none" xmlns="http://www.w3.org/2000/svg">
<g id="Group 14249">
<path id="Ellipse 25" d="M7.17671 4.43598C7.17671 5.01853 7.28854 5.59539 7.50581 6.1336C7.72307 6.67181 8.04152 7.16084 8.44298 7.57277C8.84444 7.9847 9.32104 8.31146 9.84556 8.53439C10.3701 8.75733 10.9323 8.87207 11.5 8.87207C12.0678 8.87207 12.63 8.75733 13.1545 8.53439C13.679 8.31146 14.1556 7.9847 14.5571 7.57277C14.9585 7.16084 15.277 6.67181 15.4942 6.1336C15.7115 5.59539 15.8233 5.01853 15.8233 4.43598H14.354C14.354 4.82054 14.2802 5.20135 14.1368 5.55664C13.9933 5.91193 13.7831 6.23476 13.5181 6.50669C13.2531 6.77862 12.9385 6.99433 12.5922 7.14149C12.2459 7.28866 11.8748 7.36441 11.5 7.36441C11.1252 7.36441 10.7541 7.28866 10.4079 7.14149C10.0616 6.99433 9.74697 6.77862 9.48196 6.50669C9.21694 6.23476 9.00672 5.91193 8.86329 5.55664C8.71987 5.20135 8.64605 4.82055 8.64605 4.43598L7.17671 4.43598Z" fill="#6D44E0"/>
<g id="Group 14247">
<path id="Ellipse 24" d="M-1.43051e-05 4.43598C-1.43051e-05 5.01853 0.111812 5.59539 0.329078 6.1336C0.546345 6.67181 0.864798 7.16084 1.26625 7.57277C1.66771 7.9847 2.14431 8.31146 2.66884 8.53439C3.19337 8.75733 3.75555 8.87207 4.3233 8.87207C4.89104 8.87207 5.45323 8.75733 5.97776 8.53439C6.50228 8.31146 6.97888 7.9847 7.38034 7.57277C7.78179 7.16084 8.10025 6.67181 8.31751 6.1336C8.53478 5.59539 8.64661 5.01853 8.64661 4.43598H7.17727C7.17727 4.82054 7.10345 5.20135 6.96003 5.55664C6.8166 5.91193 6.60638 6.23476 6.34136 6.50669C6.07635 6.77862 5.76173 6.99433 5.41547 7.14149C5.06921 7.28866 4.69809 7.36441 4.3233 7.36441C3.94851 7.36441 3.57739 7.28866 3.23113 7.14149C2.88487 6.99433 2.57025 6.77862 2.30523 6.50669C2.04021 6.23476 1.82999 5.91193 1.68656 5.55664C1.54314 5.20135 1.46932 4.82055 1.46932 4.43598L-1.43051e-05 4.43598Z" fill="#6D44E0"/>
<rect id="Rectangle 44" width="1.46993" height="4.43609" fill="#6D44E0"/>
</g>
<g id="Group 14248">
<path id="Ellipse 24_2" d="M23 4.43658C23 3.85402 22.8882 3.27717 22.6709 2.73896C22.4536 2.20075 22.1352 1.71172 21.7337 1.29979C21.3323 0.88786 20.8557 0.5611 20.3311 0.338166C19.8066 0.115231 19.2444 0.000488256 18.6767 0.000488281C18.1089 0.000488307 17.5467 0.115231 17.0222 0.338166C16.4977 0.5611 16.0211 0.88786 15.6196 1.29979C15.2182 1.71172 14.8997 2.20075 14.6825 2.73896C14.4652 3.27717 14.3534 3.85402 14.3534 4.43658H15.8227C15.8227 4.05201 15.8965 3.67121 16.0399 3.31592C16.1834 2.96063 16.3936 2.6378 16.6586 2.36587C16.9236 2.09394 17.2382 1.87823 17.5845 1.73106C17.9308 1.5839 18.3019 1.50815 18.6767 1.50815C19.0515 1.50815 19.4226 1.5839 19.7688 1.73106C20.1151 1.87823 20.4297 2.09394 20.6947 2.36587C20.9598 2.6378 21.17 2.96063 21.3134 3.31592C21.4568 3.67121 21.5307 4.05201 21.5307 4.43658L23 4.43658Z" fill="#3BCADD"/>
<rect id="Rectangle 44_2" x="23" y="8.87256" width="1.46993" height="4.43609" transform="rotate(-180 23 8.87256)" fill="#3BCADD"/>
</g>
<rect id="Rectangle 46" x="7.1767" width="1.46993" height="4.43609" fill="#C4C4C4"/>
<rect id="Rectangle 45" x="7.1767" width="1.46993" height="4.43609" fill="#6D44E0"/>
</g>
</svg>
